<svg width="13" height="10" viewBox="0 0 13 10" fill="none" xmlns="http://www.w3.org/2000/svg">
<mask id="path-1-inside-1_5_6" fill="white">
<path d="M8.00011 0L13.0001 5L8.00011 10L6.93945 8.93934L10.8788 5L6.93945 1.06066L8.00011 0Z"/>
</mask>
<path d="M8.00011 0L13.0001 5L8.00011 10L6.93945 8.93934L10.8788 5L6.93945 1.06066L8.00011 0Z" fill="white"/>
<path d="M13.0001 5L14.0608 6.06066L15.1214 5L14.0608 3.93934L13.0001 5ZM8.00011 0L9.06077 -1.06066L8.00011 -2.12132L6.93945 -1.06066L8.00011 0ZM8.00011 10L6.93945 11.0607L8.00011 12.1213L9.06077 11.0607L8.00011 10ZM6.93945 1.06066L5.87879 -1.67164e-07L4.81813 1.06066L5.87879 2.12132L6.93945 1.06066ZM6.93945 8.93934L5.87879 7.87868L4.81813 8.93934L5.87879 10L6.93945 8.93934ZM10.8788 5L11.9395 6.06066L13.0001 5L11.9395 3.93934L10.8788 5ZM14.0608 3.93934L9.06077 -1.06066L6.93945 1.06066L11.9395 6.06066L14.0608 3.93934ZM9.06077 11.0607L14.0608 6.06066L11.9395 3.93934L6.93945 8.93934L9.06077 11.0607ZM6.93945 -1.06066L5.87879 -1.67164e-07L8.00011 2.12132L9.06077 1.06066L6.93945 -1.06066ZM5.87879 10L6.93945 11.0607L9.06077 8.93934L8.00011 7.87868L5.87879 10ZM9.81813 3.93934L5.87879 7.87868L8.00011 10L11.9395 6.06066L9.81813 3.93934ZM5.87879 2.12132L9.81813 6.06066L11.9395 3.93934L8.00011 -1.58579e-08L5.87879 2.12132Z" fill="black" fill-opacity="0.25" mask="url(#path-1-inside-1_5_6)"/>
<mask id="path-3-inside-2_5_6" fill="white">
<path d="M1.93957 0L6.93957 5L1.93957 10L0.878906 8.93934L4.81825 5L0.878906 1.06066L1.93957 0Z"/>
</mask>
<path d="M1.93957 0L6.93957 5L1.93957 10L0.878906 8.93934L4.81825 5L0.878906 1.06066L1.93957 0Z" fill="white"/>
<path d="M6.93957 5L8.00023 6.06066L9.06089 5L8.00023 3.93934L6.93957 5ZM1.93957 0L3.00023 -1.06066L1.93957 -2.12132L0.878907 -1.06066L1.93957 0ZM1.93957 10L0.878906 11.0607L1.93957 12.1213L3.00023 11.0607L1.93957 10ZM0.878906 1.06066L-0.181754 -1.67164e-07L-1.24241 1.06066L-0.181754 2.12132L0.878906 1.06066ZM0.878906 8.93934L-0.181754 7.87868L-1.24241 8.93934L-0.181754 10L0.878906 8.93934ZM4.81825 5L5.87891 6.06066L6.93957 5L5.87891 3.93934L4.81825 5ZM8.00023 3.93934L3.00023 -1.06066L0.878906 1.06066L5.87891 6.06066L8.00023 3.93934ZM3.00023 11.0607L8.00023 6.06066L5.87891 3.93934L0.878906 8.93934L3.00023 11.0607ZM0.878907 -1.06066L-0.181754 -1.67164e-07L1.93957 2.12132L3.00023 1.06066L0.878907 -1.06066ZM-0.181754 10L0.878906 11.0607L3.00023 8.93934L1.93957 7.87868L-0.181754 10ZM3.75759 3.93934L-0.181754 7.87868L1.93957 10L5.87891 6.06066L3.75759 3.93934ZM-0.181754 2.12132L3.75759 6.06066L5.87891 3.93934L1.93957 -1.58579e-08L-0.181754 2.12132Z" fill="black" fill-opacity="0.25" mask="url(#path-3-inside-2_5_6)"/>
</svg>
