<svg width="7" height="10" viewBox="0 0 7 10" fill="none" xmlns="http://www.w3.org/2000/svg">
<mask id="path-1-inside-1_5_4" fill="white">
<path d="M2.00011 0L7.00011 5L2.00011 10L0.939453 8.93934L4.87879 5L0.939453 1.06066L2.00011 0Z"/>
</mask>
<path d="M2.00011 0L7.00011 5L2.00011 10L0.939453 8.93934L4.87879 5L0.939453 1.06066L2.00011 0Z" fill="white"/>
<path d="M7.00011 5L8.06077 6.06066L9.12143 5L8.06077 3.93934L7.00011 5ZM2.00011 0L3.06077 -1.06066L2.00011 -2.12132L0.939453 -1.06066L2.00011 0ZM2.00011 10L0.939453 11.0607L2.00011 12.1213L3.06077 11.0607L2.00011 10ZM0.939453 1.06066L-0.121207 -1.67164e-07L-1.18187 1.06066L-0.121207 2.12132L0.939453 1.06066ZM0.939453 8.93934L-0.121207 7.87868L-1.18187 8.93934L-0.121207 10L0.939453 8.93934ZM4.87879 5L5.93945 6.06066L7.00011 5L5.93945 3.93934L4.87879 5ZM8.06077 3.93934L3.06077 -1.06066L0.939453 1.06066L5.93945 6.06066L8.06077 3.93934ZM3.06077 11.0607L8.06077 6.06066L5.93945 3.93934L0.939453 8.93934L3.06077 11.0607ZM0.939453 -1.06066L-0.121207 -1.67164e-07L2.00011 2.12132L3.06077 1.06066L0.939453 -1.06066ZM-0.121207 10L0.939453 11.0607L3.06077 8.93934L2.00011 7.87868L-0.121207 10ZM3.81813 3.93934L-0.121207 7.87868L2.00011 10L5.93945 6.06066L3.81813 3.93934ZM-0.121207 2.12132L3.81813 6.06066L5.93945 3.93934L2.00011 -1.58579e-08L-0.121207 2.12132Z" fill="black" fill-opacity="0.25" mask="url(#path-1-inside-1_5_4)"/>
</svg>
